<svg width="28" height="28" viewBox="0 0 28 28" fill="none" xmlns="http://www.w3.org/2000/svg">
<g clip-path="url(#clip0_38693_34052)">
<path d="M21 10.5001L19.355 8.84342L11.6667 16.5317L8.645 13.5217L7 15.1667L11.6667 19.8334L21 10.5001ZM22.1667 3.50008H17.29C16.8 2.14675 15.5167 1.16675 14 1.16675C12.4833 1.16675 11.2 2.14675 10.71 3.50008H5.83333C5.67 3.50008 5.51833 3.51175 5.36667 3.54675C4.91167 3.64008 4.50333 3.87341 4.18833 4.18841C3.97833 4.39841 3.80333 4.65508 3.68667 4.93508C3.57 5.20341 3.5 5.50675 3.5 5.83342V22.1667C3.5 22.4818 3.57 22.7967 3.68667 23.0767C3.80333 23.3568 3.97833 23.6017 4.18833 23.8234C4.50333 24.1384 4.91167 24.3717 5.36667 24.4651C5.51833 24.4884 5.67 24.5001 5.83333 24.5001H22.1667C23.45 24.5001 24.5 23.4501 24.5 22.1667V5.83342C24.5 4.55008 23.45 3.50008 22.1667 3.50008ZM14 3.20841C14.4783 3.20841 14.875 3.60508 14.875 4.08342C14.875 4.56175 14.4783 4.95842 14 4.95842C13.5217 4.95842 13.125 4.56175 13.125 4.08342C13.125 3.60508 13.5217 3.20841 14 3.20841ZM22.1667 22.1667H5.83333V5.83342H22.1667V22.1667Z" fill="#374142"/>
</g>
<defs>
<clipPath id="clip0_38693_34052">
<rect width="28" height="28" fill="white"/>
</clipPath>
</defs>
</svg>
